<svg width="445" height="446" viewBox="0 0 445 446" fill="none" xmlns="http://www.w3.org/2000/svg">
<path d="M207.475 8.69434C216.77 3.31589 228.23 3.31588 237.525 8.69433L400.216 102.835C409.484 108.198 415.191 118.094 415.191 128.801V317.199C415.191 327.906 409.484 337.802 400.216 343.165L237.525 437.306C228.23 442.684 216.77 442.684 207.475 437.306L44.7841 343.165C35.5163 337.802 29.8093 327.906 29.8093 317.199V128.801C29.8093 118.094 35.5163 108.198 44.7841 102.835L207.475 8.69434Z" fill="white"/>
<path d="M207.5 17.6603C216.782 12.3013 228.218 12.3013 237.5 17.6603L393.262 107.59C402.544 112.949 408.262 122.853 408.262 133.571V313.429C408.262 324.147 402.544 334.051 393.262 339.41L237.5 429.34C228.218 434.699 216.782 434.699 207.5 429.34L51.7376 339.41C42.4555 334.051 36.7375 324.147 36.7375 313.43V133.571C36.7375 122.853 42.4555 112.949 51.7375 107.59L207.5 17.6603Z" fill="#E8E8E8"/>
<path fill-rule="evenodd" clip-rule="evenodd" d="M393.008 321.25L222.504 223.5V420L393.008 321.25Z" fill="#E48E00"/>
<path d="M51.9961 321.25L222.5 420V223.5L51.9961 321.25Z" fill="#A46800"/>
<path d="M393.004 321.25V125.75L222.5 223.5L393.004 321.25Z" fill="#A46800"/>
<path d="M51.9961 125.75V321.25L222.5 223.5L51.9961 125.75Z" fill="#004562"/>
<path d="M393.004 125.75L222.5 27V223.5L393.004 125.75Z" fill="#004562"/>
<path d="M222.5 27L51.9961 125.75L222.5 223.5V27Z" fill="#00618A"/>
<path d="M208.75 32.8252C217.126 27.9896 227.414 27.9142 235.85 32.5986L236.25 32.8252L380.754 116.255C389.262 121.167 394.504 130.246 394.504 140.07V306.93C394.504 316.754 389.262 325.833 380.754 330.745L236.25 414.175C227.874 419.01 217.586 419.086 209.15 414.401L208.75 414.175L64.2461 330.745C55.7376 325.833 50.4962 316.754 50.4961 306.93V140.07C50.4962 130.246 55.7376 121.167 64.2461 116.255L208.75 32.8252Z" stroke="black" stroke-width="5"/>
<path d="M213 96.7735C219.188 93.2008 226.812 93.2008 233 96.7735L327.315 151.226C333.503 154.799 337.315 161.402 337.315 168.547V277.453C337.315 284.598 333.503 291.201 327.315 294.773L233 349.227C226.812 352.799 219.188 352.799 213 349.227L118.685 294.773C112.497 291.201 108.685 284.598 108.685 277.453V168.547C108.685 161.402 112.497 154.799 118.685 151.226L213 96.7735Z" fill="white"/>
<rect x="138" y="139" width="168" height="168"/>
</svg>
